<?xml version="1.0" encoding="UTF-8"?>
<svg id="Layer_1" data-name="Layer 1" xmlns="http://www.w3.org/2000/svg" viewBox="0 0 360.77 351.19">
  <defs>
    <style>
      .cls-1 {
        stroke-width: 0px;
      }
    </style>
  </defs>
  <path class="cls-1" d="M360.77,63.69c-1.88,7.19-3.88,14.35-5.62,21.58-4.83,20.02-9.48,40.09-14.33,60.11-5.63,23.28-21.96,36.16-46.97,38.11-17.18,1.34-34.28,3.52-51.42,5.31-16.79,1.75-33.59,3.45-50.38,5.2-16.91,1.77-33.81,3.57-50.71,5.36-5.01.53-10.03,1.03-15.03,1.64-.81.1-1.95.49-2.27,1.1-4.12,7.74-6.18,15.7-2.03,24.15,3.74,7.61,9.92,11.62,18.32,12.23,1.87.13,3.75.05,5.63.05,51.3,0,102.6,0,153.9.02,1.86,0,3.75.16,5.56.56,3.92.88,6.45,4.28,6.33,8.17-.13,4-3.14,7.42-7.12,7.96-1.39.19-2.81.17-4.22.17-52.36,0-104.71.02-157.07,0-20.94,0-36.28-12.63-40.03-33.2-1.6-8.81.04-17.32,4.11-25.24,1.8-3.51,1.8-6.6.55-10.32-17.04-51.06-33.93-102.18-50.88-153.28-3.63-10.95-11.08-16.29-22.65-16.32-8.22-.02-16.44.04-24.65-.03-3.71-.03-6.98-1.15-8.77-4.74C-.38,9.45-.49,6.4,1.65,4.03,3.11,2.41,5.37.54,7.31.5c11.49-.27,23.13-1.11,34.46.29,15.31,1.9,25.63,11.3,30.86,25.92,2.32,6.5,4.41,13.09,6.43,19.69.63,2.04,1.63,2.64,3.72,2.67,44.6.61,89.2,1.32,133.81,1.94,44.02.62,88.03,1.11,132.05,1.83,3,.05,6.09,1.21,8.93,2.37,1.33.54,2.15,2.32,3.21,3.54v4.93ZM85.69,65.94c.5,1.72.87,3.16,1.33,4.57,11.89,36.12,23.8,72.23,35.69,108.35,1.7,5.15,1.68,5.05,7.05,4.46,14.8-1.62,29.6-3.19,44.41-4.72,19.24-1.99,38.48-3.88,57.72-5.88,21.57-2.23,43.12-4.67,64.7-6.76,14.7-1.42,24.11-9.3,27.61-23.75,4.14-17.06,8.33-34.1,12.47-51.15,1.7-6.98,3.33-13.98,5.09-21.39-85.54-1.25-170.58-2.49-256.07-3.75Z"/>
  <path class="cls-1" d="M115.09,351.19c-21-.03-37.68-16.84-37.57-37.85.11-20.67,17.06-37.55,37.67-37.52,20.68.03,37.79,17.27,37.69,37.97-.1,20.59-17.12,37.43-37.78,37.4ZM115,334.32c11.48.04,20.89-9.19,21.02-20.63.13-11.2-9.45-20.89-20.78-21.02-11.32-.13-20.83,9.34-20.87,20.78-.05,11.55,9.12,20.82,20.63,20.86Z"/>
  <path class="cls-1" d="M274.04,351.19c-20.76-.05-37.52-16.75-37.66-37.53-.14-20.57,17.17-37.89,37.83-37.84,20.51.05,37.57,17.1,37.68,37.66.11,20.66-17.05,37.76-37.85,37.71ZM274.03,334.32c11.54.03,20.79-9.12,20.89-20.66.1-11.32-9.34-20.88-20.71-20.98-11.29-.1-20.8,9.37-20.88,20.79-.08,11.48,9.19,20.81,20.69,20.84Z"/>
</svg>