<?xml version="1.0" encoding="UTF-8"?>
<svg id="Layer_1" data-name="Layer 1" xmlns="http://www.w3.org/2000/svg" viewBox="0 0 404.29 257.06">
  <defs>
    <style>
      .cls-1 {
        stroke-width: 0px;
      }
    </style>
  </defs>
  <path class="cls-1" d="M0,181.3c1.61-6.46,2.64-13.15,4.94-19.36,8.4-22.64,24.01-38.51,46.38-47.71.84-.34,1.66-.72,2.56-1.11-26.87-21.4-22.05-54.56-5.28-70.8,17.99-17.42,46.27-17.47,64.53-.35,16.49,15.47,22.48,49.24-4.28,70.62,8.47,4.95,17.14,10.01,26.11,15.25,5.13-3.36,10.72-7.53,16.77-10.86,5.94-3.27,12.34-5.68,18.95-8.65-18.86-13.16-28.57-31.02-27.17-54.16,1.01-16.62,8.41-30.26,21.1-40.86,24.65-20.58,61.7-16.87,82.33,7.95,20.13,24.22,18.73,64.95-14.22,87.18,1.31.61,2.37,1.22,3.51,1.6,10.95,3.68,20.97,9.09,29.87,16.42,2.57,2.11,4.04,1.68,6.65-.1,7.34-5,15.05-9.43,22.67-14.12-13.13-10.26-19.78-24.48-18.13-42.05,1.14-12.17,6.8-22.21,16.04-30.23,18.42-16,46.9-14.22,63.77,3.86,16.11,17.27,18.68,48.72-6.91,69.21,17.09,6.43,30.79,16.96,40.74,32.13,9.89,15.1,14.2,31.68,13.21,50.16h-97.78c0,6.22,0,11.96,0,17.7-.04,24.79-17.88,43.55-42.68,43.77-41.18.35-82.37.33-123.56.01-24.92-.19-42.86-18.99-42.95-44.01-.02-5.63,0-11.26,0-17.18.11.03-.38-.19-.87-.19-32.1.02-64.21.05-96.31.08C0,190.77,0,186.04,0,181.3ZM201.6,243.78c20.66,0,41.32.11,61.98-.04,14.02-.1,25.44-8.48,28.44-22.15,1.6-7.28,1.54-15.23.68-22.7-3.06-26.51-15.53-47.84-36.84-64.04-28.25-21.47-70.44-23.66-100.68-5.06-25.55,15.73-40.56,38.47-44.4,68.18-.98,7.58-1.14,15.66.38,23.1,2.85,13.97,14.52,22.58,28.86,22.68,20.53.13,41.05.03,61.58.03ZM156.1,58.41c-.11,24.65,20.12,45.44,44.35,45.57,25.89.14,46.65-19.94,46.74-45.22.09-25.23-20.21-45.69-45.4-45.77-25.33-.08-45.58,20.04-45.69,45.41ZM278.87,137.74c.91,1.21,1.48,2.07,2.14,2.84,9.81,11.43,16.85,24.38,21.09,38.8.75,2.55,2.05,2.84,4.22,2.84,27.1-.04,54.19-.03,81.29-.04,1.03,0,2.05-.14,3.49-.24-4.84-28.3-19.89-48.11-47.11-57.12-23.71-7.85-45.46-2.7-65.13,12.9ZM124.6,137.19c-23.2-17.5-48.04-21.22-74.09-8.49-21.79,10.64-33.86,28.94-37.44,53.1.98.19,1.48.37,1.98.37,27.61.02,55.23,0,82.84.07,2.26,0,2.62-1.23,3.37-2.93,3.96-8.97,7.77-18.03,12.37-26.66,2.88-5.39,7.07-10.07,10.96-15.47ZM323.03,42c-18.29.19-33.42,14.96-33.08,33.11.36,19.31,14.59,33.08,33.35,33.28,18.35.2,33.26-15.34,33.03-33.57-.24-18.35-15.11-33.02-33.3-32.82ZM80.97,41.99c-18.04,0-33.38,13.8-33.36,33.18.02,18.55,13.86,32.97,32.97,33.17,18.84.2,33.12-14.82,33.35-32.8.23-18.39-14.42-33.36-32.96-33.55Z"/>
</svg>