<?xml version="1.0" encoding="UTF-8"?>
<svg id="Layer_1" data-name="Layer 1" xmlns="http://www.w3.org/2000/svg" viewBox="0 0 359.38 299.55">
  <path d="M23.96,137.81c-10.9-2.95-17.88-9.37-17.88-21.04,0-11.66,6.98-18.08,17.88-21.03,0-1.46,0-2.82,0-4.18,0-24.2,0-48.41,0-72.61C23.97,7.47,31.43,0,42.91,0c99.2,0,198.4,0,297.6,0,11.45,0,18.86,7.48,18.86,19.03,0,73.11,0,146.22,0,219.33,0,11.73-7.41,19.14-19.13,19.14-63.14,0-126.28.02-189.41-.06-2.84,0-4.32.8-5.78,3.33-16.11,27.9-48.03,42.94-79.76,37.77-32.16-5.24-57.88-30.15-63.81-62.21-4.84-26.19,2.3-49.01,20.15-68.66,1.26-1.39,2.18-3.61,2.23-5.47.24-8.09.1-16.19.1-24.38ZM152.38,245.56c1.32,0,2.68,0,4.03,0,60.64,0,121.29,0,181.93,0,7.3,0,9.09-1.77,9.09-9.01,0-71.86,0-143.72,0-215.59,0-7.24-1.78-9.01-9.07-9.01-37.31,0-74.62,0-111.93,0-60.77,0-121.54,0-182.3,0-5.92,0-8.19,2.08-8.2,7.62-.03,25.2-.02,50.4.02,75.6,0,1.01.5,2.01.77,3.02,1.03-.44,2.27-.65,3.07-1.35,8.36-7.31,16.58-14.77,24.99-22.03,2.24-1.94,2.87-3.54,1.98-6.6-3.3-11.35,3.46-22.64,14.97-25.72,11.1-2.97,22.38,3.72,25.44,15.07,1.6,5.96.36,11.53-2.63,16.91,8.22,6.49,16.22,12.8,24.08,19,8.7-4.59,13.54-4.75,22.12-1.3,1.02.41,2.86-.02,3.76-.75,9.99-8.08,19.83-16.34,29.82-24.42,1.98-1.6,2.56-2.99,1.91-5.58-3.73-14.78,10.2-28.62,24.98-24.94,8.7,2.17,14.12,7.72,15.87,16.49,1.63,8.2-1.09,15.14-7.56,20.25-6.86,5.41-14.57,6.13-22.45,2.21-1.81-.9-2.91-1.04-4.56.35-9.93,8.35-19.92,16.62-30.01,24.78-1.84,1.49-2.16,2.77-1.56,5.01,2.32,8.56-1,17.4-8.14,22.4-7.14,5-16.67,5.06-23.89.16-7.22-4.91-10.64-13.66-8.46-22.28.53-2.12.16-3.35-1.57-4.69-7.41-5.7-14.69-11.58-22.07-17.33-.8-.62-2.12-1.4-2.87-1.15-6.28,2.13-12.23,1.14-17.97-1.72-9.51,8.45-18.87,16.69-28.08,25.1-.87.79-1.3,2.84-.97,4.04,2.74,9.87-.45,18.78-8.93,24.48-.83.56-1.96,1.51-1.98,2.3-.16,6.16-.09,12.33-.09,18.68,31.2-17,61.65-17.05,89.67,4.71,27.94,21.7,35.27,51.18,26.79,85.28ZM23.27,257.85c13.8,22.07,44.06,35.88,74.01,26.61,25.25-7.82,47.1-34.84,45.58-56.66-.45-.07-.93-.22-1.41-.22-20.08-.01-40.16-.02-60.24,0-.95,0-2.01.2-2.84.65-18.32,9.81-36.62,19.66-55.11,29.61ZM17.21,247.22c1.33-.66,2.33-1.11,3.29-1.63,16.11-8.68,32.18-17.42,48.36-25.97,2.34-1.24,3.1-2.6,3.08-5.18-.11-18.08-.06-36.15-.06-54.23,0-1.22,0-2.44,0-4.14-21.79,2.64-38.58,12.6-49.88,30.89-11.76,19.04-13.03,39.2-4.79,60.26ZM84.04,215.31h58.99c-2.03-32.1-30.55-57.63-58.99-58.82v58.82ZM215.61,56.73c-.11-4.82-4.56-9.04-9.3-8.82-4.68.21-8.71,4.49-8.61,9.12.1,4.7,4.24,8.79,8.92,8.81,4.81.02,9.1-4.33,9-9.11ZM86.69,53.91c-4.85.12-9.03,4.54-8.81,9.3.22,4.71,4.45,8.72,9.11,8.63,4.81-.09,9.04-4.56,8.8-9.3-.23-4.7-4.49-8.74-9.1-8.63ZM149.7,110.95c.11-4.62-3.92-8.91-8.6-9.14-4.75-.23-9.2,3.97-9.31,8.8-.12,4.79,4.15,9.13,8.97,9.13,4.66,0,8.83-4.09,8.94-8.79ZM35.9,116.7c-.05-4.69-4.17-8.83-8.84-8.9-4.8-.07-9.15,4.25-9.08,9.03.07,4.85,4.42,9.05,9.22,8.9,4.66-.15,8.75-4.39,8.7-9.03Z" stroke-width="0"/>
  <path d="M275.52,221.45h6.02c0-1.48,0-2.82,0-4.16,0-14.22-.01-28.44,0-42.67.01-8.2,4.77-12.89,13.05-12.91,3.62-.01,7.24-.04,10.86,0,6.96.1,11.96,5.1,11.98,12.12.05,15.72.02,31.43.02,47.77,3.65,0,7.21-.02,10.77,0,4.7.03,7.3,2.26,7.19,6.14-.1,3.72-2.62,5.79-7.17,5.79-43.55.01-87.09.03-130.64-.01-10.01,0-17.85-7.8-17.87-17.75-.05-31.69-.03-63.38-.01-95.06,0-4.42,2.28-6.96,6.04-6.91,3.73.04,5.89,2.57,5.89,7.07.01,30.94,0,61.88.01,92.82,0,5.03,1.31,6.72,6.01,7.64,0-1.4,0-2.73,0-4.06,0-19.84.29-39.68-.14-59.51-.18-8.18,5.36-14.98,14.35-14.07,3.09.31,6.23.03,9.35.06,7.42.07,12.33,5.01,12.34,12.51.03,20.34.01,40.67.01,61.01,0,1.34,0,2.68,0,4.17h6.02c0-1.33,0-2.65,0-3.97,0-26.07,0-52.15,0-78.22,0-8.96,4.56-13.46,13.63-13.47,3.37,0,6.74-.03,10.11,0,7.17.08,12.16,5.08,12.16,12.31.03,26.32.01,52.65.01,78.97,0,1.35,0,2.71,0,4.38ZM263.3,221.43v-83.4h-11.54v83.4h11.54ZM221.37,221.43v-65.44h-11.54v65.44h11.54ZM293.75,173.83v47.47h11.55v-47.47h-11.55Z" stroke-width="0"/>
  <path d="M296.68,35.94c8.49,0,16.97-.01,25.46,0,4.75.01,7.33,2.19,7.28,6.06-.05,3.73-2.59,5.87-7.09,5.88-17.22.02-34.44.02-51.66,0-4.51,0-7.04-2.14-7.09-5.87-.06-3.87,2.53-6.05,7.27-6.07,8.61-.02,17.22,0,25.83,0Z" stroke-width="0"/>
  <path d="M296.5,71.84c-8.49,0-16.97.01-25.46,0-4.88,0-7.41-2.02-7.47-5.88-.06-3.87,2.53-6.06,7.27-6.06,17.1-.01,34.19-.01,51.29,0,4.75,0,7.33,2.19,7.28,6.06-.05,3.85-2.59,5.87-7.46,5.88-8.49.01-16.97,0-25.46,0Z" stroke-width="0"/>
  <path d="M296.24,95.8c-8.61,0-17.22.03-25.83-.01-4.39-.02-6.93-2.34-6.84-6.12.08-3.6,2.57-5.8,6.78-5.8,17.47-.03,34.94-.03,52.41,0,4.14,0,6.63,2.32,6.65,5.93.02,3.62-2.49,5.97-6.6,5.99-8.86.05-17.72.01-26.58.02Z" stroke-width="0"/>
  <path d="M251.68,47.88c-3.47.05-6.12-2.57-6.08-6.04.03-3.32,2.53-5.83,5.85-5.89,3.47-.06,6.12,2.57,6.08,6.04-.04,3.31-2.55,5.85-5.85,5.9Z" stroke-width="0"/>
  <path d="M245.6,65.57c.14-3.29,2.74-5.72,6.07-5.67,3.45.05,6.01,2.78,5.87,6.25-.14,3.29-2.75,5.74-6.07,5.68-3.46-.06-6.01-2.79-5.87-6.26Z" stroke-width="0"/>
  <path d="M251.71,83.86c3.31.07,5.81,2.61,5.83,5.92.02,3.47-2.65,6.09-6.11,6.01-3.45-.08-5.99-2.83-5.82-6.3.16-3.29,2.77-5.7,6.11-5.63Z" stroke-width="0"/>
</svg>