<?xml version="1.0" encoding="UTF-8"?>
<svg id="Layer_1" data-name="Layer 1" xmlns="http://www.w3.org/2000/svg" viewBox="0 0 487.72 309.72">
  <path d="M6.13,292.53h30.13v6H0V0h487.72v298.63h-18.98v-6.05h12.81V6.18H6.13v286.36Z" stroke-width="0"/>
  <path d="M336.64,192.99v45.56c3.15.63,6.34,1.27,9.76,1.96-.15,1.32-.31,2.63-.48,4.12h-25.63c-.3-2.35-.21-3.93,2.77-4.61,6.6-1.49,6.56-1.69,6.56-8.46,0-14.99-.04-29.98.04-44.96,0-1.92-.45-2.91-2.46-3.31-2.47-.48-4.87-1.34-7.48-2.09.19-1.29.37-2.51.6-4.06,4.9,0,9.8.2,14.67-.07,3.13-.17,4.96.78,6.73,3.51,9.99,15.4,20.23,30.64,30.39,45.93.59.88,1.21,1.74,2.17,3.12v-46.08c-3.23-.76-6.48-1.53-9.94-2.35.2-1.35.38-2.57.57-3.89h25.64c.25,2.8-.64,4.11-3.56,4.67-6.05,1.15-6,1.38-6,7.65,0,17.53-.04,35.06.05,52.58.01,2.05-.69,2.79-2.59,3.15-5.84,1.1-5.79,1.13-9.1-3.84-10.43-15.62-20.89-31.22-31.34-46.83-.31-.46-.69-.87-1.36-1.7Z" stroke-width="0"/>
  <path d="M445.55,194.43c-1.05-.13-1.81-.35-2.55-.3-1.87.13-2.44-.81-2.65-2.52-.33-2.59-.83-5.17-1.47-7.71-.17-.67-1.08-1.65-1.67-1.65-7.95-.11-15.9-.07-23.96-.07-.11.63-.27,1.1-.27,1.58-.02,7.37.03,14.73-.04,22.1-.02,1.63.46,2.26,2.15,2.22,3.81-.1,7.63-.13,11.43,0,1.81.06,2.72-.67,2.98-2.31.57-3.59,2.55-5.29,6.61-4.72-.58,6.79-1.18,13.74-1.79,20.85-1.57.21-2.97.39-4.61.61-.51-2.6-.98-5.06-1.47-7.51-.23-1.14-.61-1.97-2.12-1.93-4.23.1-8.46.04-12.92.04v26.41c.8.04,1.62.13,2.44.13,7.28.01,14.57-.05,21.85.05,1.8.02,2.72-.55,3.36-2.25,1.32-3.47,2.87-6.84,4.37-10.33,1.44.22,2.75.43,4.48.69-.53,5.62-1.06,11.19-1.6,16.88h-55.13c-.03-2.34-.03-4.31,3.08-4.7,2.14-.27,4.2-1.17,6.29-1.79v-54.62c-3.23-.79-6.4-1.56-9.77-2.38.13-1.32.26-2.54.39-3.89h54.22c-.54,5.69-1.07,11.27-1.63,17.14Z" stroke-width="0"/>
  <path d="M130.11,222.31c-.59-2.92-1.2-5.87-1.87-9.17-4.59,0-9.22-.04-13.85.07-.39,0-1.09,1-1.1,1.55-.07,7.71-.02,15.41-.06,23.12,0,1.33.49,1.79,1.79,1.78,7.88-.03,15.76.03,23.64-.1.81-.01,1.97-.9,2.34-1.68,1.66-3.5,3.1-7.11,4.64-10.76,1.57.24,2.96.45,4.5.68-.49,5.32-.99,10.51-1.45,15.71-.16,1.77-1.5,1.29-2.5,1.3-9.91.03-19.82.02-29.74.02-7.61,0-15.22,0-22.79,0-.54-3.73-.48-3.83,2.8-4.77q6.37-1.83,6.37-8.41c0-15.07,0-30.15,0-45.22,0-.92,0-1.84,0-2.83-3.38-.81-6.56-1.58-9.9-2.39.19-1.31.36-2.52.56-3.9h54.09c-.53,5.69-1.05,11.27-1.56,16.81-4.55.32-4.7.19-5.45-3.87-.48-2.58-1.01-5.14-1.58-8.08-1.73,0-3.48,0-5.23,0-6.1,0-12.2,0-18.3,0-1.11,0-2.24-.16-2.23,1.57.04,7.95.02,15.91.02,24.31,3,0,5.85,0,8.69,0,1.27,0,2.57-.18,3.81.03,2.72.47,3.9-.74,4.59-3.26.94-3.38,1.09-3.34,6.25-4.02-.14,1.28-.3,2.48-.4,3.67-.39,4.55-.84,9.09-1.13,13.65-.27,4.23-.19,4.24-4.96,4.19Z" stroke-width="0"/>
  <path d="M38.62,183.1c-.28-3.74-.14-4.05,3.24-4.56,10.56-1.59,21.15-2.86,31.83-1.29,2.57.38,5.1,1.17,7.57,2.02,13.06,4.47,13,20.86,7.17,28.51-6.51,8.54-15.59,10.83-25.74,9.83-.89-.09-1.57-2.4-2.62-4.15,7.4-.56,14.27-.38,18.57-6.7,2.67-3.92,2.59-8.43,1.82-12.77-1.79-10.12-9.83-14.55-22.16-12.41v56.58c4.21.72,8.34,1.43,12.52,2.15,0,.54,0,.86,0,1.18.09,2.9-1.43,3.44-4.09,3.38-8.55-.18-17.11-.07-25.66-.07-.91,0-1.82,0-2.79,0-.25-2.65.11-4.2,3.05-4.89,6.35-1.48,6.3-1.69,6.3-8.33,0-14.73-.03-29.46.04-44.19,0-2-.26-3.12-2.63-3.2-2.08-.06-4.14-.7-6.4-1.12Z" stroke-width="0"/>
  <path d="M208.62,195.4q-5.32-.76-5.99-5.82-.99-7.42-8.49-7.42h-9.35c0,1.18,0,2.08,0,2.99,0,17.02.04,34.04-.07,51.06-.01,2.02.76,2.67,2.47,2.95,2.4.38,4.8.82,7.16,1.22.41,4.21.22,4.44-3.83,4.44-8.45,0-16.91,0-25.33,0-.62-3.69-.51-3.89,2.63-4.77,2.11-.59,4.21-1.2,6.33-1.8v-56.06c-5.05,0-10.01-.05-14.97.08-.46.01-1.14,1.07-1.31,1.74-.91,3.67-1.69,7.36-2.55,11.24-1.73-.22-3.29-.43-5.08-.66v-17.28h60.13c-.59,6.09-1.16,12.02-1.75,18.1Z" stroke-width="0"/>
  <path d="M228.88,181.26c.4-4.78-.09-4.09,4.06-4.11,8.63-.04,17.25-.01,25.85-.01.53,3.7.43,3.87-2.71,4.82-1.46.44-2.9,1.06-4.39,1.22-1.88.21-2.28,1.07-2.27,2.83.06,17.11.04,34.22.05,51.32,0,.66.08,1.32.15,2.32h5.61c5.17,0,10.34-.09,15.5.04,2.02.05,3.22-.49,4.13-2.42,1.75-3.74,3.81-7.35,5.82-11.16,1.37.22,2.75.43,4.53.71-.48,4.61-.83,9.13-1.45,13.61-.61,4.4-.73,4.38-5.3,4.38-15.16,0-30.33,0-45.49,0h-2.97c-.74-3.67-.63-3.86,2.57-4.75q6.28-1.74,6.28-8.2c0-15.16-.04-30.32.05-45.48.01-1.89-.55-2.69-2.37-3.08-2.54-.53-5.03-1.34-7.65-2.05Z" stroke-width="0"/>
  <path d="M296.64,183.52c-3.2-.78-6.36-1.54-9.72-2.35.25-1.38.47-2.59.71-3.89h29.31c.18,2.55-.14,4.37-3.22,4.62-2.07.17-4.09.93-6.2,1.44v55.23c3.09.62,6.19,1.25,9.28,1.87.63,4.08.37,4.38-3.61,4.38-7.62,0-15.24,0-22.86,0h-2.45q-.68-3.84,2.61-4.78c2.03-.58,4.05-1.18,6.15-1.79v-54.73Z" stroke-width="0"/>
  <path d="M281.1,111.63c-1.56,1.83-2.89,3.06-3.82,4.54-1.93,3.07-4.69,4.65-8.18,4.55-5.88-.17-9.58,2.45-12.04,7.73-.82,1.76-3.06,2.96-4.85,4.11-1.22.79-1.58,1.49-1.19,2.86,1.21,4.26,3.18,6.09,7.57,6.62,2.6.31,5.22.57,7.84.57,1.71,0,2.52.58,2.67,2.23.39,4.29.86,8.57,1.13,12.87.04.69-.76,1.44-1.17,2.16-.57-.69-1.56-1.32-1.65-2.07-.5-4.02-.77-8.07-1.13-12.2-3.31-.32-6.4-.6-9.49-.94-4.97-.54-9.84-6.93-8.87-11.82.16-.8,1.11-1.75,1.92-2.07,3.2-1.26,5.23-3.6,6.61-6.61,1.87-4.06,5.09-5.85,9.49-5.93,1.49-.03,2.98-.44,4.84-.74-1.25-4.39-1.47-9.01-4.46-12.52-1.06-1.25-3.1-2.16-4.77-2.3-4.04-.33-8.12-.15-12.19-.1-3.01.03-5.3,1.55-7.17,3.78-.71.84-1.45,1.71-1.91,2.69-2.33,4.95-6.36,6.95-11.65,7.27-3.02.18-6,1-9,1.47-1.31.21-1.95.77-1.75,2.18.44,3,.74,6.03,1.25,9.02.44,2.63,2.1,4.17,4.77,4.52,4.02.53,8.03,1.15,12.06,1.51,1.71.15,2.45.88,2.63,2.43.74,6.37,1.52,12.74,2.15,19.13.07.7-.68,1.49-1.05,2.24-.59-.7-1.6-1.34-1.71-2.1-.84-5.85-1.5-11.73-2.22-17.6-.04-.33-.11-.66-.2-1.12-3.34-.43-6.68-.82-10.01-1.31-6.85-1-8.37-1.92-10.05-10.78-.49-2.56-.4-5.22-.67-7.82-.18-1.71.54-2.43,2.19-2.7,5-.82,10.01-1.64,14.96-2.7,1.33-.28,2.91-1.13,3.64-2.22,8.4-12.36,9.94-10.65,21.4-10.73,1.19,0,2.37.01,3.56.04,5.44.13,8.37,2.15,10.28,7.35,1.01,2.75,1.74,5.61,2.73,8.88,2.05-2.42,3.85-4.62,5.75-6.72.69-.76,1.65-1.27,2.48-1.89.59.93,1.45,1.79,1.73,2.81,4.06,15.25,8.05,30.52,12.01,45.79.2.78.11,1.68-.07,2.48-.05.24-1.1.58-1.25.43-.59-.59-1.25-1.29-1.44-2.06-1.8-7.38-3.38-14.82-5.27-22.18-1.93-7.5-4.15-14.93-6.43-23.05Z" stroke-width="0"/>
  <path d="M244.47,83.22c.13,4.29-2.66,6.03-6.13,7.35-5.84,2.22-11.71,4.41-17.43,6.92-6.85,2.99-13.97,3.02-21.19,2.66-1.77-.09-3.58.06-5.32-.22-.86-.14-1.59-1.02-2.38-1.56.79-.45,1.59-1.29,2.38-1.29,3.55,0,7.11.19,10.66.39,5.8.33,11.19-1.07,16.48-3.38,4.87-2.13,9.9-3.89,14.86-5.82.87-.34,1.74-.67,2.57-1.07,1.62-.78,2.97-1.82,2.34-3.91-.59-1.99-2.07-2.86-4.08-2.67-2.18.21-4.35.55-6.52.87-5.1.75-10.18,1.59-15.29,2.24-.84.11-1.78-.61-2.67-.95.75-.56,1.44-1.49,2.27-1.63,7.16-1.24,14.32-2.42,21.52-3.39,1.48-.2,3.43.13,4.56,1,1.81,1.39,3.62,1.51,5.66,1.45,7.19-.21,14.38-.25,21.56-.61,2.12-.11,4.26-.93,6.26-1.76.63-.26,1.23-1.73,1.05-2.45-.17-.73-1.32-1.75-2.05-1.75-15.35-.09-30.12-3.78-44.98-6.99-5.31-1.15-10.61-.37-15.71,1.58-6,2.3-12.01,4.6-18.06,6.76-.78.28-1.85-.23-2.79-.38.61-.75,1.07-1.87,1.86-2.18,6.21-2.46,12.49-4.74,18.73-7.13,7.72-2.96,15.41-2.02,23.17-.11,12.07,2.97,24.23,5.47,36.77,5.37,3.45-.03,5.36,1.5,5.91,4.35.56,2.89-.63,5.1-3.91,6.17-2.62.85-5.41,1.47-8.15,1.59-6.68.3-13.37.25-20.06.35-.58,0-1.16.12-1.87.2Z" stroke-width="0"/>
  <path d="M206.27,294.89c1.05.79,1.97,1.49,2.87,2.17,3.09-2.67,2.76-5.82,1.31-9.28h9.01v3.13c-1.31.07-2.48.14-3.55.2-1.08,2.72-2.12,5.35-3.27,8.28,1.31,1.34,5.65-.21,4.48,4.57-1.92-.31-3.92-.7-5.94-.95-1.24-.15-2.61-.4-3.75-.06-3.43,1.02-6.81,1.36-10.15-.07-4.4-1.87-5.48-5.96-2.96-10.01.61-.98.85-2.42.72-3.59-.31-2.75.52-4.93,3.02-6.12,2.95-1.4,5.96-1.25,8.72.5,2.41,1.52,3.05,4.63,1.68,7.47-.58,1.21-1.35,2.33-2.19,3.75ZM198.32,293.83c-1.42,1.97-1.51,3.51-.21,4.99,1.42,1.61,4.6,1.94,7.6.64-2.51-1.91-4.88-3.71-7.4-5.63ZM203.36,292.86c.65-1.59,1.53-2.78,1.5-3.96-.02-1-.89-2.56-1.72-2.83-1.03-.33-2.68.09-3.51.82-.43.37.08,2.26.63,3.19.56.95,1.69,1.56,3.1,2.77Z" stroke-width="0"/>
  <path d="M66.12,303.31v-16.04c1.53.46,2.74.9,4,1.17.49.11,1.09-.11,1.6-.29,3.21-1.11,6.26-1.04,9.25.79.53.33,1.47.14,2.18,0,2.28-.44,4.54-1.36,6.82-1.38,4.1-.03,6.92,2.58,7.31,6.62.29,3,.06,6.04.06,9.22h-3.95c0-2.5.05-4.92-.01-7.34-.08-3.5-2.31-5.45-5.77-5.12-2.65.25-3.73,1.4-3.74,4.05-.01,2.7,0,5.4,0,8.33h-3.94c0-2.38.09-4.73-.02-7.06-.19-3.91-2.25-5.63-6.1-5.25-2.88.28-3.84,1.32-3.85,4.19,0,2.62,0,5.24,0,8.11h-3.84Z" stroke-width="0"/>
  <path d="M103.75,287.14c1.61.55,2.81,1.05,4.06,1.34.56.13,1.21-.22,1.82-.25,2.57-.12,5.24-.68,7.68-.17,3.9.82,5.82,3.94,5.69,7.9-.13,3.67-2.37,6.71-6.17,7.31-2.91.47-5.96.09-9.12.09v6.35h-3.95v-22.58ZM112.54,300.26c4.05.04,6.19-1.64,6.26-4.54.06-2.76-1.9-4.7-5.03-4.77-1.14-.02-2.3.3-3.44.54-3.32.7-2.6,3.31-2.69,5.61-.08,2.26,1.65,2.45,3.13,2.9.71.22,1.49.22,1.77.26Z" stroke-width="0"/>
  <path d="M332.93,281.39h3.81v6.69c3.3-.07,6.44-.65,9.35-.08,4.37.86,6.45,4.37,5.98,8.65-.41,3.71-3.77,6.78-7.79,7.08-.76.06-1.52.07-2.28.02-2.99-.18-5.97-.38-9.07-.58v-21.78ZM336.79,295.67c0,3.56,1.23,4.61,5.41,4.6,3.42,0,5.78-1.89,5.83-4.64.05-2.63-2.34-4.67-5.5-4.7-4.03-.03-5.74,1.38-5.75,4.74Z" stroke-width="0"/>
  <path d="M249.22,288.12v-6.73h3.7v22.43c-1.42-.4-2.65-.83-3.92-1.06-.59-.11-1.25.22-1.88.27-2.41.17-4.92.77-7.22.34-3.94-.74-6.45-4.48-6.17-8.18.31-3.99,3.37-7.28,7.57-7.59,2.47-.18,4.99.31,7.92.53ZM249.18,295.39c0-3.29-1.41-4.45-5.42-4.48-3.47-.02-5.72,1.82-5.74,4.7-.02,2.84,2.11,4.72,5.47,4.63,3.48-.09,6.31-.99,5.69-4.86Z" stroke-width="0"/>
  <path d="M285.03,288.23c-.32,2.8-.96,3.85-3.49,2.97-1.67-.58-3.67-.45-5.49-.27-.77.07-1.44,1.08-2.16,1.67.8.39,1.58,1.07,2.41,1.12,1.85.12,3.71-.09,5.57-.13,2.43-.04,4.34.8,5.02,3.34.59,2.25-.48,4.63-2.84,5.63-5.04,2.15-9.99,1.47-15.08-.84.61-1.08,1.09-1.92,1.22-2.16,3.72.29,6.94.69,10.16.69.83,0,1.66-1.27,2.49-1.96-.92-.38-1.83-1.01-2.77-1.07-2.09-.14-4.21.08-6.31,0-1.93-.07-3.46-.97-3.96-2.94-.52-2.05-.02-3.95,1.82-5.14,1.1-.72,2.44-1.5,3.68-1.51,3.22-.03,6.45.36,9.73.58Z" stroke-width="0"/>
  <path d="M136.81,287.44c6.55,0,10.29,3.46,10,9.01-.16,3.05-1.83,5.32-4.52,6.15-2.57.8-5.51,1.2-8.15.8-4.68-.71-7.03-4.13-6.75-8.64.23-3.7,3.58-6.77,7.91-7.24.59-.06,1.18-.06,1.51-.08ZM137.08,300.27c3.44.02,5.67-1.83,5.65-4.69-.02-2.76-2.18-4.61-5.45-4.66-3.39-.06-5.77,1.82-5.82,4.59-.06,2.82,2.22,4.74,5.62,4.76Z" stroke-width="0"/>
  <path d="M415.72,287.5c5.61-.34,10.66,3.37,10.24,8.59-.3,3.79-3.22,7.01-7.61,7.56-1.65.21-3.41.13-5.03-.21-4.53-.94-7.24-4.28-6.99-8.32.25-4.02,3.67-7.22,8.16-7.62.59-.05,1.18,0,1.23,0ZM416.15,300.27c3.4.02,5.68-1.88,5.64-4.7-.04-2.85-2.25-4.65-5.71-4.66-3.22,0-5.46,1.87-5.51,4.61-.05,2.92,2.08,4.73,5.58,4.75Z" stroke-width="0"/>
  <path d="M371.08,287.69h3.8v16.03c-1.35-.27-2.57-.58-3.82-.75-.6-.08-1.24.09-1.85.15-1.84.2-3.69.64-5.51.55-3.88-.21-6.24-2.63-6.43-6.5-.15-3.03-.03-6.07-.03-9.33h3.98c0,2.35.01,4.76,0,7.18-.01,1.92.07,4.2,2.17,4.64,2.08.43,4.41-.02,6.55-.45.53-.11,1.05-1.61,1.09-2.5.14-2.93.05-5.87.05-9.01Z" stroke-width="0"/>
  <path d="M449.67,303.37h-3.92c0-2.44-.02-4.71,0-6.97.03-2.33-.82-4.27-3.02-5.11-2.24-.86-4.57-.49-6.48,1.01-.52.41-.72,1.47-.74,2.24-.08,2.87-.03,5.74-.03,8.81h-3.89v-16.12c1.51.46,2.71,1,3.96,1.15.89.1,1.86-.27,2.77-.53,5.77-1.64,11.06,1.42,11.33,6.68.15,2.86.03,5.74.03,8.84Z" stroke-width="0"/>
  <path d="M294.38,303.36v-12.5c-1.27-.13-2.33-.24-3.6-.37v-2.73c1.09-.08,2.15-.17,3.42-.26.11-1.51.23-2.98.35-4.57h3.62c.11,1.46.23,2.93.35,4.56,1.16.08,2.23.16,3.5.25v2.75c-.44.06-.85.21-1.24.15-2.2-.35-2.51.85-2.45,2.67.1,3.28.03,6.57.03,10.07h-3.98Z" stroke-width="0"/>
  <path d="M173.98,303.39h-3.84v-12.52c-1.37-.13-2.57-.25-3.9-.37v-2.71c1.2-.1,2.35-.2,3.68-.32.11-1.51.22-2.99.33-4.57h3.51c.11,1.57.22,3.04.33,4.62,1.19.07,2.26.13,3.5.2.06.89.11,1.7.18,2.71-1.24.14-2.37.26-3.79.42v12.54Z" stroke-width="0"/>
  <path d="M384.09,290.8c-1.56-.11-2.64-.19-3.89-.28-.04-.89-.08-1.7-.13-2.75,1.29-.1,2.44-.18,3.78-.28.12-1.52.23-2.99.36-4.58h3.57c.1,1.51.2,2.99.3,4.56,1.21.1,2.28.19,3.53.29.05.88.1,1.69.16,2.69-1.22.11-2.27.21-3.83.35,0,3.23,0,6.48,0,9.73,0,3.28-.03,3.31-3.85,2.7v-12.44Z" stroke-width="0"/>
  <path d="M55.38,303.4v-20.67h4.09v20.67h-4.09Z" stroke-width="0"/>
  <path d="M152.53,287.7c1.65.2,3.74-1.2,4.09,1.64,1.78-.58,3.55-1.25,5.38-1.6.2-.04.76,1.79,1.15,2.76q-6.74,2.32-6.74,9.29c0,1.16,0,2.31,0,3.62h-3.88v-15.71Z" stroke-width="0"/>
  <path d="M311.09,303.39h-3.92c0-2.72,0-5.46,0-8.21,0-1.6-.09-3.21.03-4.81.08-1.01-.75-2.71,1.21-2.7,1.09,0,2.17.7,3.26,1.08-.05.23-.1.46-.14.69,1.66-.75,3.31-1.5,5.26-2.38.38,1.35.67,2.36.92,3.24-.27.3-.36.5-.49.54-5.75,1.51-6.14,2.01-6.13,7.88,0,1.5,0,3,0,4.66Z" stroke-width="0"/>
  <path d="M259.79,287.74h3.5v15.63c-1.04.06-2.16.12-3.5.19v-15.82Z" stroke-width="0"/>
  <path d="M400.8,303.39h-3.81v-15.43c3.69-.78,3.8-.69,3.81,2.94,0,4.11,0,8.21,0,12.49Z" stroke-width="0"/>
  <path d="M326.39,303.39h-3.9c0-4.89-.05-9.62.08-14.34.01-.5,1.16-1.39,1.73-1.35.72.05,1.99.83,2,1.33.15,4.72.09,9.45.09,14.35Z" stroke-width="0"/>
  <path d="M261.47,286.4c-1.09-1.34-2.26-2.16-2.3-3.04-.03-.62,1.51-1.9,2.26-1.84.94.08,1.79,1.24,2.68,1.93-.71.79-1.41,1.58-2.64,2.95Z" stroke-width="0"/>
  <path d="M324.44,280.46c1.11,1.34,2.22,2.07,2.34,2.94.2,1.57-1.14,2.35-2.49,1.98-.89-.24-2.06-1.29-2.15-2.08-.08-.69,1.18-1.53,2.31-2.83Z" stroke-width="0"/>
  <path d="M398.69,286.39c-1.1-1.36-2.19-2.11-2.31-2.98-.22-1.62,1.22-2.26,2.52-1.94.93.23,1.66,1.27,2.48,1.94-.75.83-1.5,1.66-2.69,2.98Z" stroke-width="0"/>
</svg>