<?xml version="1.0" encoding="UTF-8"?>
<svg id="Layer_1" data-name="Layer 1" xmlns="http://www.w3.org/2000/svg" viewBox="0 0 383.23 383.31">
  <defs>
    <style>
      .cls-1 {
        stroke-width: 0px;
      }
    </style>
  </defs>
  <path class="cls-1" d="M28.42,383.31c-5.46-2.93-7.4-7.52-6.85-13.58.33-3.56.06-7.18.06-11.31-4,0-7.69.03-11.38,0-7.08-.07-10.22-3.25-10.24-10.34-.01-4.37-.02-8.73,0-13.1.03-6.54,3.29-9.79,9.93-9.87,4.24-.05,8.47,0,13.32,0,0-1.73,0-3.29,0-4.85,0-46.78.21-93.57-.14-140.35-.09-12.54,3.73-17.92,17.71-17.53,19.82.55,39.66.14,59.5.14,1.34,0,2.68,0,4.38,0v-4.8c0-29.82,0-59.64,0-89.45,0-1.25-.05-2.5.06-3.74.27-3.25,2.28-5.05,5.34-5.19,3.12-.14,5.13,1.71,5.74,4.8.24,1.2.1,2.49.1,3.73,0,29.94,0,59.88,0,89.83,0,1.47,0,2.94,0,4.61h151.09V11.5h-50.3c0,1.37,0,2.7,0,4.02,0,10.6.08,21.21-.03,31.81-.09,8.84-7.04,13.44-14.37,8.72-7.65-4.92-14.02-4.77-21.61.05-7.2,4.58-14.15.09-14.26-8.51-.13-10.48-.03-20.96-.04-31.44,0-1.49,0-2.97,0-4.71h-50.48c0,1.06,0,2.24,0,3.41,0,7.86.03,15.72-.01,23.58-.02,4.11-2.11,6.5-5.54,6.56-3.51.06-5.65-2.25-5.67-6.35-.05-9.11-.09-18.22.02-27.32C104.84,4.74,109.57.03,116.14.03c50.27-.03,100.54-.03,150.81,0,7.04,0,11.52,4.81,11.53,12.31.03,30.32.01,60.63.01,90.95,0,18.21,0,36.43,0,54.64,0,1.35,0,2.71,0,4.58,1.59,0,2.91,0,4.23,0,21.21,0,42.41,0,63.62,0,9.09,0,13.6,4.47,13.6,13.5,0,33.19,0,66.37-.01,99.56,0,1.36.01,2.79-.39,4.06-.89,2.84-3.01,4.34-5.98,3.97-2.74-.34-4.52-2.01-4.84-4.88-.15-1.36-.14-2.74-.14-4.11,0-31.94,0-63.88,0-95.82v-4.69h-50.66c0,1.85,0,3.56,0,5.27,0,10.6.06,21.21-.03,31.81-.06,7.14-6.51,11.21-13.04,8.27-4.08-1.84-8.03-5.41-12.06-5.45-3.87-.04-7.73,3.59-11.69,5.41-6.67,3.05-13.18-1.07-13.26-8.46-.11-10.85-.03-21.71-.03-32.56,0-1.35,0-2.71,0-4.31h-50.13v150.69h150.9c0-4.11,0-8.19,0-12.28,0-2.25-.01-4.49,0-6.74.04-5.48,1.83-7.89,5.78-7.8,3.75.08,5.57,2.58,5.58,7.7.01,6.33,0,12.67,0,19.45,3.92,0,7.51.22,11.07-.05,5.29-.4,9.48,1.12,12.22,5.85v21.71c-2.76,4.69-6.93,6.27-12.21,5.85-3.04-.24-6.11-.04-9.44-.04,0,4.17-.26,7.78.06,11.34.54,6.05-1.4,10.63-6.85,13.55h-22.46c-5.6-2.79-7.55-7.41-7.1-13.48.27-3.68.05-7.4.05-11.11H57.93c0,3.9-.22,7.52.05,11.1.45,6.06-1.51,10.68-7.1,13.48h-22.46ZM34.9,174.01v150.86h150.6v-150.75h-50.09c0,12.39.06,24.49-.02,36.58-.05,7.79-6.72,11.89-13.73,8.54-3.81-1.82-7.57-5.25-11.34-5.25-3.78,0-7.54,3.43-11.35,5.25-7.05,3.36-13.6-.74-13.64-8.55-.05-10.86-.01-21.71-.02-32.57,0-1.32,0-2.64,0-4.11h-50.41ZM11.47,346.53h360.27v-9.75H11.47v9.75ZM96.7,208.27c9.15-7.93,18.15-7.73,27.08-.3v-33.86h-27.08v34.15ZM259.2,208.44c9.15-8.31,18.24-7.8,27.28-.43v-33.85h-27.28v34.28ZM178.17,44.39c4.64-1.8,9.09-4.89,13.55-4.88,4.42,0,8.83,3.13,13.33,4.92V11.46h-26.87v32.93ZM46.36,358.71h-13.22v13.12h13.22v-13.12ZM350.2,358.71h-13.22v13.12h13.22v-13.12Z"/>
  <path class="cls-1" d="M191.61,146.62c-8.6,0-17.2.03-25.8,0-7.01-.03-10.56-3.53-10.64-10.58-.08-6.85-.09-13.71,0-20.57.09-6.83,3.6-10.41,10.43-10.45,17.32-.08,34.65-.08,51.97,0,6.83.03,10.35,3.6,10.45,10.42.1,6.85.09,13.71,0,20.57-.08,7.07-3.62,10.57-10.62,10.6-8.6.04-17.2,0-25.8,0ZM166.86,134.98h49.33v-18.17h-49.33v18.17Z"/>
  <path class="cls-1" d="M272.82,309.15c-8.72,0-17.44.02-26.16,0-6.57-.02-10.06-3.56-10.09-10.21-.03-7.1-.04-14.21,0-21.31.04-6.24,3.41-9.77,9.68-9.8,17.82-.08,35.63-.08,53.45,0,6.14.03,9.4,3.45,9.46,9.58.07,7.35.07,14.7,0,22.05-.06,6.17-3.6,9.64-9.8,9.67-8.85.04-17.69.01-26.54.01ZM297.79,279.46h-49.77v18.23h49.77v-18.23Z"/>
  <path class="cls-1" d="M110.25,309.15c-8.72,0-17.44.02-26.16,0-6.46-.02-9.98-3.44-10.03-9.82-.06-7.35-.07-14.7,0-22.05.06-5.91,3.33-9.39,9.22-9.42,18.06-.1,36.13-.1,54.19.01,5.77.04,9.11,3.68,9.16,9.54.06,7.35.06,14.7,0,22.05-.05,6.08-3.71,9.66-9.86,9.69-8.85.04-17.69.01-26.54.01ZM85.42,297.61h49.76v-18.22h-49.76v18.22Z"/>
</svg>